<svg xmlns="http://www.w3.org/2000/svg" width="15" height="15" viewBox="0 0 15 15"><path d="M9.984,39.484a2.5,2.5,0,1,0-2.5,2.5A2.5,2.5,0,0,0,9.984,39.484Zm1.348,0a3.847,3.847,0,1,1-3.847-3.847A3.842,3.842,0,0,1,11.332,39.484Zm1.055-4a.9.9,0,1,1-.9-.9A.9.9,0,0,1,12.386,35.481Zm-4.9-2.148a16.577,16.577,0,0,0-4.423.3A2.4,2.4,0,0,0,2.2,34.2a2.4,2.4,0,0,0-.566.859,16.577,16.577,0,0,0-.3,4.423,16.577,16.577,0,0,0,.3,4.423,2.4,2.4,0,0,0,.566.859,2.4,2.4,0,0,0,.859.566,16.577,16.577,0,0,0,4.423.3,16.577,16.577,0,0,0,4.423-.3,2.557,2.557,0,0,0,1.426-1.426,16.577,16.577,0,0,0,.3-4.423,16.577,16.577,0,0,0-.3-4.423,2.557,2.557,0,0,0-1.426-1.426A16.577,16.577,0,0,0,7.484,33.333Zm7.5,6.152c0,1.035.01,2.06-.049,3.1a4.459,4.459,0,0,1-1.211,3.144,4.459,4.459,0,0,1-3.144,1.211c-1.035.059-2.06.049-3.1.049s-2.06.01-3.1-.049a4.459,4.459,0,0,1-3.144-1.211A4.459,4.459,0,0,1,.034,42.58c-.059-1.035-.049-2.06-.049-3.1s-.01-2.06.049-3.1a4.459,4.459,0,0,1,1.211-3.144,4.459,4.459,0,0,1,3.144-1.211c1.035-.059,2.06-.049,3.1-.049s2.06-.01,3.1.049a4.459,4.459,0,0,1,3.144,1.211,4.459,4.459,0,0,1,1.211,3.144C14.994,37.424,14.984,38.449,14.984,39.484Z" transform="translate(0.016 -31.984)"/></svg>