<svg xmlns="http://www.w3.org/2000/svg" xmlns:xlink="http://www.w3.org/1999/xlink" width="24" height="24" viewBox="0 0 24 24"><defs><clipPath id="b"><rect width="24" height="24"/></clipPath></defs><g id="a" clip-path="url(#b)"><path d="M9.5,39.238A2.262,2.262,0,1,0,11.763,41.5,2.262,2.262,0,0,0,9.5,39.238ZM14.789,37.5a2.29,2.29,0,0,0-1.29-1.29,15.051,15.051,0,0,0-4-.273,14.939,14.939,0,0,0-4,.273,2.29,2.29,0,0,0-1.29,1.29,15.081,15.081,0,0,0-.273,4,15.022,15.022,0,0,0,.274,4A2.29,2.29,0,0,0,5.5,46.79a15.053,15.053,0,0,0,4,.273,14.935,14.935,0,0,0,4-.273,2.29,2.29,0,0,0,1.29-1.29,14.958,14.958,0,0,0,.273-4,14.966,14.966,0,0,0-.273-4ZM9.5,44.978a3.473,3.473,0,1,1,2.46-1.017A3.478,3.478,0,0,1,9.5,44.978Zm3.621-6.29a.807.807,0,1,1,.575-.237.812.812,0,0,1-.575.237ZM16.964,32H2.036A2.036,2.036,0,0,0,0,34.036V48.964A2.036,2.036,0,0,0,2.036,51H16.964A2.036,2.036,0,0,0,19,48.964V34.036A2.036,2.036,0,0,0,16.964,32Zm-.726,12.3a4.035,4.035,0,0,1-1.1,2.842,4.037,4.037,0,0,1-2.842,1.1c-1.12.063-4.478.063-5.6,0a4.043,4.043,0,0,1-2.842-1.1,4.023,4.023,0,0,1-1.1-2.842c-.063-1.12-.063-4.479,0-5.6a4.022,4.022,0,0,1,1.1-2.842A4.045,4.045,0,0,1,6.7,34.766c1.12-.063,4.478-.063,5.6,0a4.038,4.038,0,0,1,2.842,1.1,4.038,4.038,0,0,1,1.1,2.844C16.3,39.822,16.3,43.178,16.238,44.3Z" transform="translate(3 -29)"/></g></svg>