<svg xmlns="http://www.w3.org/2000/svg" width="18.469" height="15" viewBox="0 0 18.469 15"><path d="M29.469,65.781a8.137,8.137,0,0,1-1.9,1.957c.012.164.012.328.012.492A10.774,10.774,0,0,1,11,77.3a7.826,7.826,0,0,0,.914.047,7.58,7.58,0,0,0,4.7-1.617,3.792,3.792,0,0,1-3.539-2.625,4.77,4.77,0,0,0,.715.059,4,4,0,0,0,1-.129A3.786,3.786,0,0,1,11.75,69.32v-.047a3.812,3.812,0,0,0,1.711.48,3.791,3.791,0,0,1-1.172-5.062,10.759,10.759,0,0,0,7.8,3.961A4.272,4.272,0,0,1,20,67.785a3.789,3.789,0,0,1,6.551-2.59,7.452,7.452,0,0,0,2.4-.914,3.775,3.775,0,0,1-1.664,2.086A7.589,7.589,0,0,0,29.469,65.781Z" transform="translate(-11 -64)"/></svg>