<svg xmlns="http://www.w3.org/2000/svg" xmlns:xlink="http://www.w3.org/1999/xlink" width="24" height="24" viewBox="0 0 24 24"><defs><clipPath id="b"><rect width="24" height="24"/></clipPath></defs><g id="a" clip-path="url(#b)"><path d="M16.964,32H2.036A2.036,2.036,0,0,0,0,34.036V48.964A2.036,2.036,0,0,0,2.036,51H16.964A2.036,2.036,0,0,0,19,48.964V34.036A2.036,2.036,0,0,0,16.964,32ZM14.89,38.735c.008.119.008.242.008.36a7.86,7.86,0,0,1-7.914,7.914,7.877,7.877,0,0,1-4.271-1.247,5.86,5.86,0,0,0,.67.034,5.577,5.577,0,0,0,3.452-1.187,2.785,2.785,0,0,1-2.6-1.93,3,3,0,0,0,1.255-.051A2.782,2.782,0,0,1,3.266,39.9v-.034a2.78,2.78,0,0,0,1.255.352A2.776,2.776,0,0,1,3.283,37.9a2.747,2.747,0,0,1,.377-1.4A7.9,7.9,0,0,0,9.394,39.4a2.787,2.787,0,0,1,4.746-2.54,5.451,5.451,0,0,0,1.764-.67,2.774,2.774,0,0,1-1.221,1.531,5.535,5.535,0,0,0,1.6-.433A5.855,5.855,0,0,1,14.89,38.735Z" transform="translate(3 -29)"/></g></svg>