<svg xmlns="http://www.w3.org/2000/svg" xmlns:xlink="http://www.w3.org/1999/xlink" width="24" height="24" viewBox="0 0 24 24"><defs><clipPath id="b"><rect width="24" height="24"/></clipPath></defs><g id="a" clip-path="url(#b)"><path d="M7.922,39.214l4.037,2.294L7.922,43.8ZM19,34.036V48.964A2.036,2.036,0,0,1,16.964,51H2.036A2.036,2.036,0,0,1,0,48.964V34.036A2.036,2.036,0,0,1,2.036,32H16.964A2.036,2.036,0,0,1,19,34.036Zm-1.781,7.477a20.379,20.379,0,0,0-.322-3.741A1.936,1.936,0,0,0,15.531,36.4,45.542,45.542,0,0,0,9.5,36.071a45.542,45.542,0,0,0-6.031.327A1.936,1.936,0,0,0,2.1,37.772a21.867,21.867,0,0,0,0,7.481,1.908,1.908,0,0,0,1.366,1.353,46.136,46.136,0,0,0,6.031.322,45.542,45.542,0,0,0,6.031-.327A1.908,1.908,0,0,0,16.9,45.249,20.316,20.316,0,0,0,17.219,41.513Z" transform="translate(3 -29)"/></g></svg>