<svg xmlns="http://www.w3.org/2000/svg" width="21.335" height="15" viewBox="0 0 21.335 15"><path d="M112.492,121.406l5.762-2.976-5.762-3.012Zm2.2-10.263c4.488,0,7.465.214,7.465.214a3.02,3.02,0,0,1,2.143.9,3.746,3.746,0,0,1,.845,2.119,28.9,28.9,0,0,1,.214,3.453v1.619a28.785,28.785,0,0,1-.214,3.453,3.8,3.8,0,0,1-.845,2.119,3.048,3.048,0,0,1-2.143.893s-2.976.226-7.465.226h0c-5.548-.048-7.25-.214-7.25-.214a3.6,3.6,0,0,1-2.357-.9,3.8,3.8,0,0,1-.845-2.119,28.838,28.838,0,0,1-.214-3.453v-1.619a28.833,28.833,0,0,1,.214-3.453,3.744,3.744,0,0,1,.845-2.119,3.019,3.019,0,0,1,2.143-.9s2.976-.214,7.465-.214h0Z" transform="translate(-104.027 -111.143)"/></svg>